<svg id="Layer_1" data-name="Layer 1" xmlns="http://www.w3.org/2000/svg" viewBox="0 0 380.98 80.85"><defs><style>.cls-1,.cls-2{fill:#fff;}.cls-2{stroke:#fff;stroke-miterlimit:10;stroke-width:0.75px;}</style></defs><title>logo</title><path class="cls-1" d="M69.91,14.19h-.82A4.23,4.23,0,0,1,64.86,10h0a4.23,4.23,0,0,1,4.23-4.23h.82A4.23,4.23,0,0,1,74.14,10h0A4.23,4.23,0,0,1,69.91,14.19Z" transform="translate(-27.03 -5.74)"/><path class="cls-1" d="M69.5,70.73h0a4.08,4.08,0,0,1-4.08-4.08V26.37A4.08,4.08,0,0,1,69.5,22.3h0a4.08,4.08,0,0,1,4.08,4.08V66.65A4.08,4.08,0,0,1,69.5,70.73Z" transform="translate(-27.03 -5.74)"/><path class="cls-1" d="M100.66,16.88l-.07-.09,0,0-.05-.06s-.52-.58-.06-.06l-.12-.11-.09-.08-.12-.1a4.12,4.12,0,0,0-5.71,5.9l.05.05a33.78,33.78,0,0,1-50.6,44.75l0-.06a4,4,0,0,0-.3-.28,33.78,33.78,0,0,1,.08-44.37l.05-.05A4.12,4.12,0,0,0,38,16.4l-.12.1-.09.08-.12.11c.46-.51-.06.06-.06.06l-.05.06,0,0-.07.09a42,42,0,0,0,62.92,55.66l.08-.08,0,0,.27-.35,0,0A42,42,0,0,0,100.66,16.88Z" transform="translate(-27.03 -5.74)"/><path class="cls-2" d="M214.23,45.56h-15.1a1.53,1.53,0,0,0,0,3.06h15.1a1.53,1.53,0,1,0,0-3.06Z" transform="translate(-27.03 -5.74)"/><path class="cls-2" d="M211,56.43l0,0a12.66,12.66,0,0,1-16.77-19l0,0,.1-.11a12.66,12.66,0,0,1,16.63,0l0,0a1.54,1.54,0,0,0,2.21-2.14l0,0,0,0,0,0,0,0,0,0h0l0,0a15.74,15.74,0,0,0-20.86,23.58l0,0h0l.13.1h0a15.74,15.74,0,0,0,20.69,0l0,0h0l0,0,0,0,0,0,0,0,0,0A1.54,1.54,0,0,0,211,56.43Z" transform="translate(-27.03 -5.74)"/><path class="cls-1" d="M145.43,32h12.78a15.51,15.51,0,0,1,6.1,1.2,15.19,15.19,0,0,1,4.94,3.32,16.16,16.16,0,0,1,3.32,4.92,14.77,14.77,0,0,1,1.23,6,13.67,13.67,0,0,1-1.33,6A16.35,16.35,0,0,1,164,61.48a14.51,14.51,0,0,1-5.73,1.18H145.43Zm12.78,27.53a11.34,11.34,0,0,0,4.5-1,13,13,0,0,0,4-2.63,14.1,14.1,0,0,0,2.8-3.83,10.2,10.2,0,0,0,1.08-4.62,11.44,11.44,0,0,0-1-4.65,13,13,0,0,0-2.65-3.93,12.83,12.83,0,0,0-3.91-2.7,11.43,11.43,0,0,0-4.74-1h-9.39V59.52Z" transform="translate(-27.03 -5.74)"/><path class="cls-1" d="M184.55,32v3.1h-3.08V59.56h3.08v3.1H175v-3.1h3V35.08h-3V32Z" transform="translate(-27.03 -5.74)"/><path class="cls-1" d="M227.68,32v3.1h-3.08V59.56h3.08v3.1h-9.56v-3.1h3V35.08h-3V32Z" transform="translate(-27.03 -5.74)"/><path class="cls-1" d="M310,32v3.1h-3.08V59.56H310v3.1h-9.56v-3.1h3V35.08h-3V32Z" transform="translate(-27.03 -5.74)"/><path class="cls-1" d="M377.45,32v3.1h-3.08V59.56h3.08v3.1h-9.56v-3.1h3V35.08h-3V32Z" transform="translate(-27.03 -5.74)"/><path class="cls-1" d="M252.17,32v3.1h-8.11V62.66h-3.44V35.08h-8.06V32Z" transform="translate(-27.03 -5.74)"/><path class="cls-1" d="M364.1,32v3.1H356V62.66h-3.44V35.08h-8.06V32Z" transform="translate(-27.03 -5.74)"/><path class="cls-1" d="M280.91,62.66h-3.83L264.69,37.74,254,59.56h14.45l2.11,3.1h-22l16.07-32.3Z" transform="translate(-27.03 -5.74)"/><path class="cls-1" d="M283.84,62.66V32h3.44V59.56h9.15v3.1Z" transform="translate(-27.03 -5.74)"/><path class="cls-1" d="M379.49,41.15a15.5,15.5,0,0,1,8.26-8.23,15.74,15.74,0,0,1,10.62-.57,14.89,14.89,0,0,1,4,1.89,16.69,16.69,0,0,1,3.27,2.9A16,16,0,0,1,408,40.78l-2.75,1.77a13.07,13.07,0,0,0-1.89-3,13.64,13.64,0,0,0-2.63-2.41,12.05,12.05,0,0,0-3.22-1.6,11.8,11.8,0,0,0-8.38.44,13,13,0,0,0-3.93,2.68,12.7,12.7,0,0,0-2.65,3.91,11.42,11.42,0,0,0-1,4.65,11.19,11.19,0,0,0,1,4.65,12.86,12.86,0,0,0,2.65,3.86,12.68,12.68,0,0,0,3.91,2.65,11.65,11.65,0,0,0,4.74,1,12,12,0,0,0,3.34-.47,12.75,12.75,0,0,0,3-1.3,13,13,0,0,0,2.56-2A11.42,11.42,0,0,0,404.71,53l2.36,2.41a15.82,15.82,0,0,1-5.48,5.24,15.09,15.09,0,0,1-7.74,2,15.24,15.24,0,0,1-6.1-1.23,15.51,15.51,0,0,1-8.26-8.23,15.38,15.38,0,0,1,0-12Z" transform="translate(-27.03 -5.74)"/><path class="cls-1" d="M320.88,48.87l12.56.07a4.85,4.85,0,0,1,2.2,1,6.73,6.73,0,0,1,1.24,2.13,4.33,4.33,0,0,1,.11,1.13h4.17a9.86,9.86,0,0,0-.46-2.48h0l0-.13v0h0a9,9,0,0,0-1.9-3h0c-.15-.15-.3-.28-.45-.41l-.12-.11h0a8.89,8.89,0,0,0-4.3-2l-12.24,0c-3.28-.17-3.56-3.18-3.77-4.06l0-.28v-.24c-.16-3.53,2.23-5.07,3.17-5h19.87V31.38H320.72l-.44,0c-2.62.53-6.95,3.1-6.58,9.34C313.65,43.23,315.88,48.35,320.88,48.87Z" transform="translate(-27.03 -5.74)"/><path class="cls-1" d="M335.28,57.8a5.83,5.83,0,0,1-3,.95l-18,.28v3.62h18.38c4.63,0,6.86-2.51,7.83-4.85Z" transform="translate(-27.03 -5.74)"/></svg>